<svg width="67" height="67" viewBox="0 0 67 67" fill="none" xmlns="http://www.w3.org/2000/svg">
<path d="M66.4167 33.4999C66.4167 51.6793 51.6794 66.4166 33.5 66.4166C15.3206 66.4166 0.583359 51.6793 0.583359 33.4999C0.583359 15.3205 15.3206 0.583252 33.5 0.583252C51.6794 0.583252 66.4167 15.3205 66.4167 33.4999Z" fill="#FF9500"/>
<path d="M41.4064 51.6038C48.3783 48.5548 53.2502 41.5963 53.2502 33.5C53.2502 22.5924 44.4077 13.75 33.5002 13.75C22.5926 13.75 13.7502 22.5924 13.7502 33.5C13.7502 41.5968 18.6225 48.5556 25.5952 51.6045C21.253 53.5035 17.7255 56.9187 15.682 61.1811C20.818 64.494 26.9351 66.4167 33.5015 66.4167C40.0677 66.4167 46.1848 64.494 51.3207 61.1811C49.2771 56.9184 45.7491 53.5028 41.4064 51.6038Z" fill="#FFFF02"/>
<path d="M33.5001 45.0209C36.908 45.0209 39.832 42.9495 41.0817 39.997C41.7904 38.3229 40.2556 36.7917 38.4376 36.7917H28.5626C26.7446 36.7917 25.2099 38.3229 25.9186 39.997C27.1683 42.9495 30.0923 45.0209 33.5001 45.0209Z" fill="#FF9500"/>
<path d="M26.9168 29.3853C26.9168 30.7487 25.8115 31.854 24.448 31.854C23.0846 31.854 21.9793 30.7487 21.9793 29.3853C21.9793 28.0218 23.0846 26.9165 24.448 26.9165C25.8115 26.9165 26.9168 28.0218 26.9168 29.3853Z" fill="#FF9500"/>
<path d="M45.0209 29.3853C45.0209 30.7487 43.9156 31.854 42.5522 31.854C41.1888 31.854 40.0834 30.7487 40.0834 29.3853C40.0834 28.0218 41.1888 26.9165 42.5522 26.9165C43.9156 26.9165 45.0209 28.0218 45.0209 29.3853Z" fill="#FF9500"/>
</svg>
